<svg width="17" height="16" viewBox="0 0 17 16" fill="none" xmlns="http://www.w3.org/2000/svg">
<path d="M1.5 1.33301H2.00526C2.85578 1.33301 3.56986 1.97343 3.6621 2.81893L4.3379 9.01375C4.43014 9.85925 5.14422 10.4997 5.99474 10.4997H13.205C13.9669 10.4997 14.6317 9.98308 14.82 9.24486L15.9699 4.7356C16.2387 3.68179 15.4425 2.65708 14.355 2.65708H4.5M4.52063 13.5205H5.14563M4.52063 14.1455H5.14563M13.6873 13.5205H14.3123M13.6873 14.1455H14.3123M5.66667 13.833C5.66667 14.2932 5.29357 14.6663 4.83333 14.6663C4.3731 14.6663 4 14.2932 4 13.833C4 13.3728 4.3731 12.9997 4.83333 12.9997C5.29357 12.9997 5.66667 13.3728 5.66667 13.833ZM14.8333 13.833C14.8333 14.2932 14.4602 14.6663 14 14.6663C13.5398 14.6663 13.1667 14.2932 13.1667 13.833C13.1667 13.3728 13.5398 12.9997 14 12.9997C14.4602 12.9997 14.8333 13.3728 14.8333 13.833Z" stroke="white" stroke-width="1.5" stroke-linecap="round"/>
</svg>
